<?xml version="1.0" encoding="UTF-8"?>
<svg id="Layer_1" data-name="Layer 1" xmlns="http://www.w3.org/2000/svg" viewBox="0 0 34.6 20.58">
  <defs>
    <style>
      .cls-1 {
        fill: #fff;
        stroke-width: 0px;
      }
    </style>
  </defs>
  <path class="cls-1" d="M0,.17c3.35.01,6.7.02,10.05.03v1.35h-2.26c-.11.02-.52.12-.83.51-.26.34-.28.71-.29.83,1.29,4.32,2.59,8.65,3.88,12.97,2.36-5.29,4.72-10.58,7.07-15.87h.83c2.1,5.27,4.21,10.55,6.31,15.82-.61,1.55-1.23,3.11-1.84,4.66-2.02-5.01-4.05-10.02-6.07-15.02-2.24,5.04-4.49,10.08-6.73,15.12h-1.78c-1.74-5.95-3.49-11.9-5.23-17.85-.06-.16-.19-.45-.47-.7-.43-.4-.93-.47-1.1-.49H.03c-.01-.46-.02-.91-.03-1.37Z"/>
  <path class="cls-1" d="M26.2.17h8.39v1.24h-1.05c-.25.08-.6.24-.97.52-.42.33-.67.69-.81.92-.87,2.13-1.75,4.25-2.62,6.38-.07.04-.38.23-.76.14-.37-.08-.66-.37-.78-.75.66-1.67,1.31-3.35,1.97-5.02.04-.09.29-.68,0-1.32-.27-.6-.82-.81-.92-.84h-2.46c0-.42.01-.85.02-1.27Z"/>
</svg>